# AST/ASF file generated using VICON BodyLanguage
# -----------------------------------------------
:version 1.10
:name VICON
:units
  mass 1.0
  length 0.45
  angle deg
:documentation
   .ast/.asf automatically generated from VICON data using
   VICON BodyBuilder and BodyLanguage model FoxedUp or BRILLIANT.MOD
:root
   order TX TY TZ RX RY RZ
   axis XYZ
   position 0 0 0  
   orientation 0 0 0 
:bonedata
  begin
     id 1 
     name lhipjoint
     direction 0.558404 -0.748506 0.357664 
     length 2.4234 
     axis 0 0 0  XYZ
  end
  begin
     id 2 
     name lfemur
     direction 0.34202 -0.939693 0  
     length 7.14567  
     axis 0 0 20  XYZ
    dof rx ry rz
    limits (-160.0 20.0)
           (-70.0 70.0)
           (-60.0 70.0)
  end
  begin
     id 3 
     name ltibia
     direction 0.34202 -0.939693 0   
     length 8.13956   
     axis 0 0 20   XYZ
    dof rx
    limits (-10.0 170.0)
  end
  begin
     id 4 
     name lfoot
     direction 0.0791314 -0.217412 0.972867   
     length 2.00134   
     axis -90 7.62852e-016 20   XYZ
    dof rx rz
    limits (-45.0 90.0)
           (-70.0 20.0)
  end
  begin
     id 5 
     name ltoes
     direction 1.53547e-011 -4.21922e-011 1   
     length 1.00735   
     axis -90 7.62852e-016 20   XYZ
    dof rx
    limits (-90.0 20.0)
  end
  begin
     id 6 
     name rhipjoint
     direction -0.496392 -0.78327 0.374276   
     length 2.31584  
     axis 0 0 0  XYZ 
  end
  begin
     id 7 
     name rfemur
     direction -0.34202 -0.939693 0   
     length 7.47417   
     axis 0 0 -20   XYZ
    dof rx ry rz
    limits (-160.0 20.0)
           (-70.0 70.0)
           (-70.0 60.0)
  end
  begin
     id 8 
     name rtibia
     direction -0.34202 -0.939693 0   
     length 7.69071   
     axis 0 0 -20   XYZ
    dof rx
    limits (-10.0 170.0)
 end
 begin
     id 9 
     name rfoot
     direction -0.103069 -0.28318 0.953512   
     length 2.16135  
     axis -90 -7.62852e-016 -20   XYZ
    dof rx rz
    limits (-45.0 90.0)
           (-20.0 70.0)
  end
  begin
     id 10 
     name rtoes
     direction -1.53581e-011 -4.21904e-011 1   
     length 1.07867   
     axis -90 -7.62852e-016 -20   XYZ
    dof rx
    limits (-90.0 20.0)
  end
  begin
     id 11 
     name lowerback
     direction -0.0258961 0.994776 -0.0987407   
     length 2.19412   
     axis 0 0 0   XYZ
    dof rx ry rz
    limits (-20.0 45.0)
           (-30.0 30.0)
           (-30.0 30.0)
  end
  begin
     id 12 
     name upperback
     direction 0.0402454 0.999185 0.00320666   
     length 2.18445   
     axis 0 0 0   XYZ
    dof rx ry rz
    limits (-20.0 45.0)
           (-30.0 30.0)
           (-30.0 30.0)
  end
  begin
     id 13 
     name thorax
     direction 0.0519376 0.997415 0.0496558   
     length 2.21487   
     axis 0 0 0   XYZ
    dof rx ry rz
    limits (-20.0 45.0)
           (-30.0 30.0)
           (-30.0 30.0)
  end
  begin
     id 14 
     name lowerneck
     direction -0.0921276 0.983211 0.157506   
     length 1.61201   
     axis 0 0 0   XYZ
    dof rx ry rz
    limits (-20.0 45.0)
           (-30.0 30.0)
           (-30.0 30.0)
  end
  begin
     id 15 
     name upperneck
     direction 0.0820814 0.98162 -0.172292   
     length 1.65275   
     axis 0 0 0   XYZ
    dof rx ry rz
    limits (-20.0 45.0)
           (-30.0 30.0)
           (-30.0 30.0)
  end
  begin
     id 16
     name head
     direction 0.0336554 0.996413 -0.0776455  
     length 1.66415  
     axis 0 0 0   XYZ
    dof rx ry rz
    limits (-20.0 45.0)
           (-30.0 30.0)
           (-30.0 30.0)
  end
  begin
     id 17 
     name lclavicle
     direction 0.94696 0.284418 -0.149576  
     length 3.41447  
     axis 0 0 0   XYZ
    dof ry rz
    limits (-20.0 10.0)
           (0.0 20.0)
  end
  begin
     id 18 
     name lhumerus
     direction 1 -0.000130264 -9.81312e-005   
     length 5.19964   
     axis 180 -30 -90   XYZ
    dof rx ry rz
    limits (-60.0 90.0)
           (-90.0 90.0)
           (-90.0 90.0)
  end
  begin
     id 19
     name lradius
     direction 1 -4.48961e-011 1.43854e-026   
     length 3.32189   
     axis 180 -30 -90   XYZ
    dof rx
    limits (-10.0 170.0)
  end
  begin
     id 20
     name lwrist
     direction 1 -4.48958e-011 3.1502e-026   
     length 1.66095   
     axis -1.97692e-014 90 90   XYZ
    dof ry
    limits (-180.0 0.0)
 end
  begin
     id 21 
     name lhand
     direction 1 -4.48927e-011 6.3004e-026   
     length 0.645616   
     axis -4.02019e-014 90 90   XYZ
    dof rx rz
    limits (-90.0 90.0)
           (-45.0 45.0)
  end
  begin
     id 22 
     name lfingers
     direction 1 -4.4904e-011 1.26008e-025   
     length 0.520512   
     axis -8.04039e-014 90 90   XYZ
    dof rx
    limits (0.0 90.0)
  end
  begin
     id 23
     name lthumb
     direction 0.707107 -6.34947e-011 0.707107   
     length 0.747354   
     axis -90 45 2.85299e-015   XYZ
    dof rx rz
    limits (-45.0 45.0)
           (-45.0 45.0)
  end
  begin
     id 24 
     name rclavicle
     direction -0.909391 0.383475 -0.161107   
     length 3.25176  
     axis 0 0 0   XYZ 
    dof ry rz
    limits (-10.0 20.0)
           (-20.0 0.0)
  end
  begin
     id 25 
     name rhumerus
     direction -1 -4.48965e-011 -1.81384e-027  
     length 5.6595   
     axis 180 30 90   XYZ
    dof rx ry rz
    limits (-90.0 60.0)
           (-90.0 90.0)
           (-90.0 90.0)
  end
  begin
     id 26 
     name rradius
     direction -1 -4.48996e-011 -8.09397e-027   
     length 3.37604   
     axis 180 30 90   XYZ
    dof rx
    limits (-10.0 170.0)
  end
  begin
     id 27 
     name rwrist
     direction -1 -4.48927e-011 -1.56669e-026   
     length 1.68802   
     axis 1.21142e-014 -90 -90   XYZ
    dof ry
    limits (-180.0 0.0)
  end
  begin
     id 28
     name rhand
     direction -1 -4.48912e-011 -3.13339e-026   
     length 0.824702   
     axis 1.99937e-014 -90 -90   XYZ
    dof rx rz
    limits (-90.0 90.0)
           (-45.0 45.0)
  end
  begin
     id 29
     name rfingers
     direction -1 -4.49011e-011 -6.26677e-026   
     length 0.664896   
     axis 3.99874e-014 -90 -90   XYZ
    dof rx
    limits (0.0 90.0)
  end
  begin
     id 30
     name rthumb
     direction -0.707107 -6.34931e-011 0.707107   
     length 0.954662   
     axis -90 -45 -2.85299e-015   XYZ
    dof rx rz
    limits (-45.0 45.0)
           (-45.0 45.0)
  end
:hierarchy
  begin
    root lhipjoint rhipjoint lowerback
    lhipjoint lfemur
    lfemur ltibia
    ltibia lfoot
    lfoot ltoes
    rhipjoint rfemur
    rfemur rtibia
    rtibia rfoot
    rfoot rtoes
    lowerback upperback
    upperback thorax
    thorax lowerneck lclavicle rclavicle
    lowerneck upperneck
    upperneck head
    lclavicle lhumerus
    lhumerus lradius
    lradius lwrist
    lwrist lhand lthumb
    lhand lfingers
    rclavicle rhumerus
    rhumerus rradius
    rradius rwrist
    rwrist rhand rthumb
    rhand rfingers
  end

#!OML:ASF F:\VICON\USERDATA\INSTALL\rory3\rory3.ASF
:FULLY-SPECIFIED
:DEGREES
151
root 3.62776 13.9309 2.98091 -12.5432 -9.33055 -2.07724
lowerback 20.107 -5.70293 -4.43956
upperback 4.74192 -7.98526 8.2019
thorax -4.09844 -4.06772 13.4452
lowerneck -7.91612 -4.34921 -10.7607
upperneck 31.2214 -5.72683 3.89657
head 11.9916 -3.46938 2.583
rclavicle 6.36111e-014 -7.31528e-014
rhumerus -57.3083 -19.4029 -54.3393
rradius 46.3478
rwrist -7.7909
rhand -19.8791 20.0043
rfingers 7.12502
rthumb 6.45652 -9.87728
lclavicle 6.36111e-014 -7.31528e-014
lhumerus -16.4347 11.0367 93.4669
lradius 41.9049
lwrist 8.32855
lhand -17.5828 35.7588
lfingers 7.12502
lthumb 8.67293 65.5606
rfemur -64.0572 -22.7841 33.8194
rtibia 47.2215
rfoot 14.9294 -18.6779
rtoes 32.7635
lfemur -33.4819 11.1733 -41.8022
ltibia 77.4648
lfoot -25.8477 -2.46845
ltoes 36.914
152
root 3.6696 13.9553 3.14694 -12.1881 -9.36437 -2.84209
lowerback 19.7997 -5.83738 -3.74928
upperback 4.85478 -8.02115 8.35789
thorax -3.88117 -4.10732 13.1654
lowerneck -8.47266 -4.09928 -10.3202
upperneck 31.0001 -5.4266 4.09305
head 11.9728 -3.24665 2.61173
rclavicle 4.25399e-014 -2.54444e-014
rhumerus -57.5085 -19.3116 -55.3344
rradius 46.1005
rwrist -8.07277
rhand -20.3739 19.9572
rfingers 7.12502
rthumb 5.97881 -9.9384
lclavicle 4.25399e-014 -2.54444e-014
lhumerus -14.5092 8.489 95.9223
lradius 41.1568
lwrist 6.12188
lhand -19.3294 33.7922
lfingers 7.12502
lthumb 6.98718 63.6569
rfemur -64.3698 -21.1619 36.2704
rtibia 48.7004
rfoot 14.3551 -16.8576
rtoes 31.3944
lfemur -32.8302 11.5993 -41.1719
ltibia 77.2708
lfoot -26.2948 -2.23191
ltoes 35.8983
153
root 3.70438 13.9513 3.26443 -11.7163 -7.59684 -3.59817
lowerback 20.275 -6.48907 -3.42847
upperback 4.35134 -8.76476 8.68242
thorax -4.48778 -4.42506 13.6297
lowerneck -8.49513 -3.79781 -10.2795
upperneck 30.8129 -5.02744 4.23768
head 11.8661 -3.04243 2.71131
rclavicle 1.19668e-013 -1.90833e-014
rhumerus -57.6531 -20.1705 -54.9439
rradius 44.6229
rwrist -6.8333
rhand -21.0747 20.0589
rfingers 7.12502
rthumb 5.30226 -9.85476
lclavicle 1.19668e-013 -1.90833e-014
lhumerus -13.0181 5.84428 98.3041
lradius 40.4067
lwrist 4.12408
lhand -20.1174 33.8199
lfingers 7.12502
lthumb 6.22648 63.7084
rfemur -65.2658 -20.8351 38.2786
rtibia 50.3328
rfoot 17.1341 -12.1937
rtoes 21.7038
lfemur -32.2981 10.2685 -40.9345
ltibia 77.2947
lfoot -26.1638 -2.43737
ltoes 36.0646
154
root 3.77616 13.9949 3.43049 -11.6614 -7.5066 -4.31774
lowerback 20.2963 -6.68349 -2.56039
upperback 4.32424 -8.82501 8.82371
thorax -4.62584 -4.44877 13.3078
lowerneck -8.29763 -3.5876 -10.9344
upperneck 30.3633 -4.92235 5.35254
head 11.6811 -2.93323 3.25796
rclavicle 2.78299e-014 -1.59028e-014
rhumerus -57.813 -21.719 -54.1389
rradius 42.8884
rwrist -5.12002
rhand -21.6925 20.421
rfingers 7.12502
rthumb 4.70573 -9.5067
lclavicle 2.78299e-014 -1.59028e-014
lhumerus -11.621 2.57336 100.408
lradius 39.8984
lwrist 2.35796
lhand -20.1409 33.7114
lfingers 7.12502
lthumb 6.20376 63.6006
rfemur -64.6188 -19.1658 39.6095
rtibia 51.8809
rfoot 16.4744 -10.2112
rtoes 26.3074
lfemur -31.4002 10.5496 -40.3449
ltibia 77.1459
lfoot -26.2375 -3.03214
ltoes 37.2668
155
root 3.845 14.0398 3.58325 -11.2312 -7.68908 -5.33351
lowerback 20.0261 -6.83115 -1.38601
upperback 4.35295 -8.77127 8.98579
thorax -4.62176 -4.42797 12.7555
lowerneck -9.17547 -3.38835 -10.4078
upperneck 30.4448 -4.67577 5.48664
head 11.8503 -2.73284 3.24267
rclavicle 7.59357e-014 -1.59028e-015
rhumerus -58.0361 -22.6503 -54.093
rradius 41.9104
rwrist -4.16295
rhand -21.7357 21.2026
rfingers 7.12502
rthumb 4.66394 -8.72601
lclavicle 7.59357e-014 -1.59028e-015
lhumerus -10.1979 -1.7992 101.976
lradius 39.5645
lwrist 1.51256
lhand -20.7664 33.1722
lfingers 7.12502
lthumb 5.59989 63.0782
rfemur -64.1312 -16.8581 41.1821
rtibia 53.4077
rfoot 16.4397 -8.8725
rtoes 23.2256
lfemur -31.1928 11.0852 -39.4514
ltibia 77.178
lfoot -26.1556 -3.09962
ltoes 36.5272
156
root 3.90951 14.0813 3.74554 -11.0888 -7.17892 -5.89977
lowerback 20.0302 -7.20036 -0.76323
upperback 4.23198 -9.11484 9.03814
thorax -4.77091 -4.58929 12.5404
lowerneck -9.52299 -3.05978 -9.93073
upperneck 30.2552 -4.21876 5.38958
head 11.7822 -2.47541 3.17711
rclavicle -4.41302e-014 4.45278e-014
rhumerus -58.1382 -22.3856 -54.6466
rradius 41.2255
rwrist -4.16696
rhand -21.6917 21.4987
rfingers 7.12502
rthumb 4.7065 -8.42899
lclavicle -4.41302e-014 4.45278e-014
lhumerus -9.12714 -7.10827 103.189
lradius 39.4822
lwrist 2.07535
lhand -21.9743 33.202
lfingers 7.12502
lthumb 4.43359 63.1356
rfemur -63.6188 -15.1766 41.8534
rtibia 55.0288
rfoot 16.7955 -8.33351
rtoes 20.5805
lfemur -30.5316 11.127 -39.1279
ltibia 77.1329
lfoot -26.0701 -2.93852
ltoes 34.9426
157
root 3.98412 14.1227 3.91413 -10.3294 -7.13201 -7.41098
lowerback 19.5393 -7.60658 1.01454
upperback 4.04011 -9.2742 9.3807
thorax -4.91605 -4.66667 11.894
lowerneck -9.76081 -2.76203 -9.5997
upperneck 30.025 -3.8092 5.36064
head 11.6891 -2.24892 3.15658
rclavicle -7.27552e-014 -2.54444e-014
rhumerus -58.0049 -21.9155 -55.3301
rradius 40.4845
rwrist -4.79885
rhand -21.6887 21.1192
rfingers 7.12502
rthumb 4.70936 -8.8085
lclavicle -7.27552e-014 -2.54444e-014
lhumerus -8.29748 -12.6315 104.178
lradius 39.8118
lwrist 2.66094
lhand -23.1116 33.1228
lfingers 7.12502
lthumb 3.33528 63.0765
rfemur -63.447 -13.0336 43.5582
rtibia 57.0302
rfoot 16.8029 -8.09231
rtoes 21.841
lfemur -30.3783 11.1752 -37.7587
ltibia 76.8735
lfoot -25.708 -3.41014
ltoes 34.0405
158
root 4.04171 14.1188 4.06171 -9.92016 -6.97436 -7.8062
lowerback 19.3235 -7.77757 1.38485
upperback 3.98318 -9.43444 9.37678
thorax -4.89686 -4.74753 11.6805
lowerneck -10.4399 -2.51228 -9.00606
upperneck 30.0519 -3.48788 5.29682
head 11.7915 -2.03502 3.06857
rclavicle -7.15625e-015 -5.56597e-014
rhumerus -57.6666 -21.9519 -56.0173
rradius 39.6163
rwrist -5.3427
rhand -21.3966 20.8251
rfingers 7.12502
rthumb 4.99146 -9.09613
lclavicle -7.15625e-015 -5.56597e-014
lhumerus -7.32042 -18.1573 104.57
lradius 40.364
lwrist 2.59749
lhand -23.5954 32.7259
lfingers 7.12502
lthumb 2.86806 62.6863
rfemur -63.3162 -10.5885 44.11
rtibia 59.2319
rfoot 17.2958 -7.27344
rtoes 22.5939
lfemur -30.3624 11.2639 -37.5326
ltibia 76.7533
lfoot -24.9351 -3.94165
ltoes 33.6008
159
root 4.17356 14.218 4.29871 -11.5738 -6.07896 -4.14216
lowerback 18.9019 -7.87309 -1.4702
upperback 4.56647 -10.273 7.86888
thorax -3.68877 -5.21734 11.5555
lowerneck -11.2602 -2.16513 -8.36312
upperneck 30.103 -3.03462 5.23415
head 11.9236 -1.75514 2.99193
rclavicle 4.45278e-014 -5.88403e-014
rhumerus -57.0364 -22.0583 -56.7411
rradius 38.6412
rwrist -5.42574
rhand -20.7996 20.6121
rfingers 7.12502
rthumb 5.56788 -9.29478
lclavicle 4.45278e-014 -5.88403e-014
lhumerus -6.12858 -23.2712 104.341
lradius 41.2483
lwrist 2.1907
lhand -23.1191 32.4589
lfingers 7.12502
lthumb 3.32807 62.4127
rfemur -61.7285 -10.9971 40.4059
rtibia 61.8954
rfoot 18.0703 -3.35413
rtoes 20.2252
lfemur -26.4785 11.474 -41.7145
ltibia 74.93
lfoot -24.5324 -3.94899
ltoes 34.2886
160
root 4.25457 14.2422 4.45746 -11.2717 -5.5516 -4.18319
lowerback 19.0897 -8.29908 -1.57993
upperback 4.16015 -10.8262 7.97565
thorax -4.07249 -5.46354 11.9176
lowerneck -11.5864 -1.69238 -8.11377
upperneck 30.2981 -2.30406 4.9514
head 11.9993 -1.43521 2.94365
rclavicle 6.95746e-014 -3.18055e-015
rhumerus -56.5767 -20.9815 -57.0624
rradius 37.7663
rwrist -5.46403
rhand -20.0972 20.1587
rfingers 7.12502
rthumb 6.24598 -9.72924
lclavicle 6.95746e-014 -3.18055e-015
lhumerus -5.64193 -26.6572 104.651
lradius 42.4638
lwrist 0.780825
lhand -21.5334 32.1012
lfingers 7.12502
lthumb 4.85936 62.0255
rfemur -61.4966 -9.81373 40.8936
rtibia 64.1424
rfoot 18.3287 -1.30306
rtoes 19.1951
lfemur -25.8467 11.2189 -41.916
ltibia 74.4288
lfoot -23.2462 -4.99561
ltoes 36.7292
